M48
;DRILL file {KiCad (2015-09-14 BZR 6197)-product} date Wednesday, September 16, 2015 'PMt' 11:24:13 PM
;FORMAT={-:-/ absolute / inch / decimal}
FMAT,2
INCH,TZ
T1C0.016
T2C0.018
T3C0.079
%
G90
G05
M72
T1
X1.1497Y-3.4363
X1.1497Y-6.8221
X1.2227Y-3.4863
X1.2227Y-6.8721
X1.266Y-1.6421
X1.266Y-5.0279
X1.2755Y-1.7146
X1.2755Y-5.1004
X1.4806Y-3.3349
X1.4806Y-6.7207
X1.5047Y-3.4073
X1.5047Y-6.7931
X1.509Y-1.6121
X1.509Y-4.9979
X1.5095Y-1.6931
X1.5095Y-5.0789
X1.537Y-3.3391
X1.537Y-6.7249
X1.5492Y-1.7874
X1.5492Y-5.1732
X1.5553Y-3.2899
X1.5553Y-6.6757
X1.5555Y-1.6046
X1.5555Y-4.9904
X1.5691Y-3.1545
X1.5691Y-6.5404
X1.5925Y-1.9055
X1.5925Y-5.2913
X1.7027Y-1.9055
X1.7027Y-5.2913
X1.7807Y-3.5033
X1.7807Y-6.8891
X1.7821Y-3.1115
X1.7821Y-6.4974
X1.8151Y-3.1375
X1.8151Y-6.5234
X1.8177Y-1.4419
X1.8177Y-4.8278
X1.8208Y-1.4704
X1.8208Y-4.8563
X1.8248Y-1.5137
X1.8248Y-4.8996
X1.8277Y-3.5343
X1.8277Y-6.9201
X1.8287Y-1.5452
X1.8287Y-4.9311
X1.8481Y-3.1795
X1.8481Y-6.5654
X1.8491Y-3.2595
X1.8491Y-6.6454
X1.8602Y-1.557
X1.8602Y-4.9429
X1.8671Y-3.2255
X1.8671Y-6.6114
X1.8901Y-3.0375
X1.8901Y-6.4234
X1.9429Y-1.7047
X1.9429Y-5.0905
X1.9991Y-2.9047
X1.9991Y-6.2905
X2.0087Y-3.8073
X2.0087Y-7.1931
X2.0391Y-2.8775
X2.0391Y-6.2634
X2.0689Y-1.2126
X2.0689Y-4.5984
X2.0925Y-1.7893
X2.0925Y-5.1752
X2.1077Y-3.3894
X2.1077Y-6.7752
X2.1299Y-1.7637
X2.1299Y-5.1496
X2.1451Y-1.8756
X2.1451Y-5.2614
X2.1561Y-1.5502
X2.1561Y-4.936
X2.1571Y-1.7286
X2.1571Y-5.1144
X2.1697Y-3.2143
X2.1697Y-6.6001
X2.4842Y-1.3444
X2.4842Y-4.7303
X2.4861Y-2.8675
X2.4861Y-6.2534
X2.4901Y-1.1712
X2.4901Y-4.557
X2.5007Y-3.0343
X2.5007Y-6.4201
X2.5031Y-2.8265
X2.5031Y-6.2124
X2.5059Y-1.311
X2.5059Y-4.6968
X2.5157Y-1.1555
X2.5157Y-4.5413
X2.5337Y-3.0083
X2.5337Y-6.3941
X3.2363Y-3.4363
X3.2363Y-6.8221
X3.3093Y-3.4863
X3.3093Y-6.8721
X3.3526Y-1.6421
X3.3526Y-5.0279
X3.3621Y-1.7146
X3.3621Y-5.1004
X3.5672Y-3.3349
X3.5672Y-6.7207
X3.5913Y-3.4073
X3.5913Y-6.7931
X3.5956Y-1.6121
X3.5956Y-4.9979
X3.5961Y-1.6931
X3.5961Y-5.0789
X3.6236Y-3.3391
X3.6236Y-6.7249
X3.6358Y-1.7874
X3.6358Y-5.1732
X3.6419Y-3.2899
X3.6419Y-6.6757
X3.6421Y-1.6046
X3.6421Y-4.9904
X3.6557Y-3.1545
X3.6557Y-6.5404
X3.6791Y-1.9055
X3.6791Y-5.2913
X3.7893Y-1.9055
X3.7893Y-5.2913
X3.8673Y-3.5033
X3.8673Y-6.8891
X3.8687Y-3.1115
X3.8687Y-6.4974
X3.9017Y-3.1375
X3.9017Y-6.5234
X3.9044Y-1.4419
X3.9044Y-4.8278
X3.9074Y-1.4704
X3.9074Y-4.8563
X3.9114Y-1.5137
X3.9114Y-4.8996
X3.9143Y-3.5343
X3.9143Y-6.9201
X3.9153Y-1.5452
X3.9153Y-4.9311
X3.9347Y-3.1795
X3.9347Y-6.5654
X3.9357Y-3.2595
X3.9357Y-6.6454
X3.9468Y-1.557
X3.9468Y-4.9429
X3.9537Y-3.2255
X3.9537Y-6.6114
X3.9767Y-3.0375
X3.9767Y-6.4234
X4.0295Y-1.7047
X4.0295Y-5.0905
X4.0857Y-2.9047
X4.0857Y-6.2905
X4.0953Y-3.8073
X4.0953Y-7.1931
X4.1257Y-2.8775
X4.1257Y-6.2634
X4.1555Y-1.2126
X4.1555Y-4.5984
X4.1791Y-1.7893
X4.1791Y-5.1752
X4.1943Y-3.3894
X4.1943Y-6.7752
X4.2165Y-1.7637
X4.2165Y-5.1496
X4.2317Y-1.8756
X4.2317Y-5.2614
X4.2427Y-1.5502
X4.2427Y-4.936
X4.2437Y-1.7286
X4.2437Y-5.1144
X4.2563Y-3.2143
X4.2563Y-6.6001
X4.5708Y-1.3444
X4.5708Y-4.7303
X4.5727Y-2.8675
X4.5727Y-6.2534
X4.5767Y-1.1712
X4.5767Y-4.557
X4.5873Y-3.0343
X4.5873Y-6.4201
X4.5897Y-2.8265
X4.5897Y-6.2124
X4.5925Y-1.311
X4.5925Y-4.6968
X4.6023Y-1.1555
X4.6023Y-4.5413
X4.6203Y-3.0083
X4.6203Y-6.3941
X5.3229Y-3.4363
X5.3229Y-6.8221
X5.3959Y-3.4863
X5.3959Y-6.8721
X5.4392Y-1.6421
X5.4392Y-5.0279
X5.4487Y-1.7146
X5.4487Y-5.1004
X5.6538Y-3.3349
X5.6538Y-6.7207
X5.6779Y-3.4073
X5.6779Y-6.7931
X5.6822Y-1.6121
X5.6822Y-4.9979
X5.6827Y-1.6931
X5.6827Y-5.0789
X5.7102Y-3.3391
X5.7102Y-6.7249
X5.7224Y-1.7874
X5.7224Y-5.1732
X5.7285Y-3.2899
X5.7285Y-6.6757
X5.7287Y-1.6046
X5.7287Y-4.9904
X5.7423Y-3.1545
X5.7423Y-6.5404
X5.7657Y-1.9055
X5.7657Y-5.2913
X5.8759Y-1.9055
X5.8759Y-5.2913
X5.9539Y-3.5033
X5.9539Y-6.8891
X5.9553Y-3.1115
X5.9553Y-6.4974
X5.9883Y-3.1375
X5.9883Y-6.5234
X5.991Y-1.4419
X5.991Y-4.8278
X5.9941Y-1.4704
X5.9941Y-4.8563
X5.998Y-1.5137
X5.998Y-4.8996
X6.0009Y-3.5343
X6.0009Y-6.9201
X6.0019Y-1.5452
X6.0019Y-4.9311
X6.0213Y-3.1795
X6.0213Y-6.5654
X6.0223Y-3.2595
X6.0223Y-6.6454
X6.0334Y-1.557
X6.0334Y-4.9429
X6.0403Y-3.2255
X6.0403Y-6.6114
X6.0633Y-3.0375
X6.0633Y-6.4234
X6.1161Y-1.7047
X6.1161Y-5.0905
X6.1723Y-2.9047
X6.1723Y-6.2905
X6.1819Y-3.8073
X6.1819Y-7.1931
X6.2123Y-2.8775
X6.2123Y-6.2634
X6.2421Y-1.2126
X6.2421Y-4.5984
X6.2657Y-1.7893
X6.2657Y-5.1752
X6.2809Y-3.3894
X6.2809Y-6.7752
X6.3031Y-1.7637
X6.3031Y-5.1496
X6.3183Y-1.8756
X6.3183Y-5.2614
X6.3293Y-1.5502
X6.3293Y-4.936
X6.3303Y-1.7286
X6.3303Y-5.1144
X6.3429Y-3.2143
X6.3429Y-6.6001
X6.6574Y-1.3444
X6.6574Y-4.7303
X6.6593Y-2.8675
X6.6593Y-6.2534
X6.6633Y-1.1712
X6.6633Y-4.557
X6.6739Y-3.0343
X6.6739Y-6.4201
X6.6763Y-2.8265
X6.6763Y-6.2124
X6.6791Y-1.311
X6.6791Y-4.6968
X6.6889Y-1.1555
X6.6889Y-4.5413
X6.7069Y-3.0083
X6.7069Y-6.3941
X7.4095Y-3.4363
X7.4095Y-6.8221
X7.4825Y-3.4863
X7.4825Y-6.8721
X7.5259Y-1.6421
X7.5259Y-5.0279
X7.5354Y-1.7146
X7.5354Y-5.1004
X7.7405Y-3.3349
X7.7405Y-6.7207
X7.7645Y-3.4073
X7.7645Y-6.7931
X7.7689Y-1.6121
X7.7689Y-4.9979
X7.7694Y-1.6931
X7.7694Y-5.0789
X7.7969Y-3.3391
X7.7969Y-6.7249
X7.809Y-1.7874
X7.809Y-5.1732
X7.8152Y-3.2899
X7.8152Y-6.6757
X7.8154Y-1.6046
X7.8154Y-4.9904
X7.8289Y-3.1545
X7.8289Y-6.5404
X7.8523Y-1.9055
X7.8523Y-5.2913
X7.9626Y-1.9055
X7.9626Y-5.2913
X8.0405Y-3.5033
X8.0405Y-6.8891
X8.0419Y-3.1115
X8.0419Y-6.4974
X8.0749Y-3.1375
X8.0749Y-6.5234
X8.0776Y-1.4419
X8.0776Y-4.8278
X8.0807Y-1.4704
X8.0807Y-4.8563
X8.0846Y-1.5137
X8.0846Y-4.8996
X8.0875Y-3.5343
X8.0875Y-6.9201
X8.0885Y-1.5452
X8.0885Y-4.9311
X8.1079Y-3.1795
X8.1079Y-6.5654
X8.1089Y-3.2595
X8.1089Y-6.6454
X8.12Y-1.557
X8.12Y-4.9429
X8.1269Y-3.2255
X8.1269Y-6.6114
X8.1499Y-3.0375
X8.1499Y-6.4234
X8.2027Y-1.7047
X8.2027Y-5.0905
X8.2589Y-2.9047
X8.2589Y-6.2905
X8.2685Y-3.8073
X8.2685Y-7.1931
X8.2989Y-2.8775
X8.2989Y-6.2634
X8.3287Y-1.2126
X8.3287Y-4.5984
X8.3523Y-1.7893
X8.3523Y-5.1752
X8.3675Y-3.3894
X8.3675Y-6.7752
X8.3897Y-1.7637
X8.3897Y-5.1496
X8.4049Y-1.8756
X8.4049Y-5.2614
X8.4159Y-1.5502
X8.4159Y-4.936
X8.4169Y-1.7286
X8.4169Y-5.1144
X8.4295Y-3.2143
X8.4295Y-6.6001
X8.7441Y-1.3444
X8.7441Y-4.7303
X8.7459Y-2.8675
X8.7459Y-6.2534
X8.75Y-1.1712
X8.75Y-4.557
X8.7605Y-3.0343
X8.7605Y-6.4201
X8.7629Y-2.8265
X8.7629Y-6.2124
X8.7657Y-1.311
X8.7657Y-4.6968
X8.7756Y-1.1555
X8.7756Y-4.5413
X8.7935Y-3.0083
X8.7935Y-6.3941
X9.4961Y-3.4363
X9.4961Y-6.8221
X9.5691Y-3.4863
X9.5691Y-6.8721
X9.6125Y-1.6421
X9.6125Y-5.0279
X9.622Y-1.7146
X9.622Y-5.1004
X9.8271Y-3.3349
X9.8271Y-6.7207
X9.8511Y-3.4073
X9.8511Y-6.7931
X9.8555Y-1.6121
X9.8555Y-4.9979
X9.856Y-1.6931
X9.856Y-5.0789
X9.8835Y-3.3391
X9.8835Y-6.7249
X9.8956Y-1.7874
X9.8956Y-5.1732
X9.9018Y-3.2899
X9.9018Y-6.6757
X9.902Y-1.6046
X9.902Y-4.9904
X9.9155Y-3.1545
X9.9155Y-6.5404
X9.9389Y-1.9055
X9.9389Y-5.2913
X10.0492Y-1.9055
X10.0492Y-5.2913
X10.1271Y-3.5033
X10.1271Y-6.8891
X10.1285Y-3.1115
X10.1285Y-6.4974
X10.1615Y-3.1375
X10.1615Y-6.5234
X10.1642Y-1.4419
X10.1642Y-4.8278
X10.1673Y-1.4704
X10.1673Y-4.8563
X10.1712Y-1.5137
X10.1712Y-4.8996
X10.1741Y-3.5343
X10.1741Y-6.9201
X10.1752Y-1.5452
X10.1752Y-4.9311
X10.1945Y-3.1795
X10.1945Y-6.5654
X10.1955Y-3.2595
X10.1955Y-6.6454
X10.2067Y-1.557
X10.2067Y-4.9429
X10.2135Y-3.2255
X10.2135Y-6.6114
X10.2365Y-3.0375
X10.2365Y-6.4234
X10.2893Y-1.7047
X10.2893Y-5.0905
X10.3455Y-2.9047
X10.3455Y-6.2905
X10.3551Y-3.8073
X10.3551Y-7.1931
X10.3855Y-2.8775
X10.3855Y-6.2634
X10.4153Y-1.2126
X10.4153Y-4.5984
X10.4389Y-1.7893
X10.4389Y-5.1752
X10.4541Y-3.3894
X10.4541Y-6.7752
X10.4763Y-1.7637
X10.4763Y-5.1496
X10.4915Y-1.8756
X10.4915Y-5.2614
X10.5025Y-1.5502
X10.5025Y-4.936
X10.5035Y-1.7286
X10.5035Y-5.1144
X10.5161Y-3.2143
X10.5161Y-6.6001
X10.8307Y-1.3444
X10.8307Y-4.7303
X10.8325Y-2.8675
X10.8325Y-6.2534
X10.8366Y-1.1712
X10.8366Y-4.557
X10.8471Y-3.0343
X10.8471Y-6.4201
X10.8495Y-2.8265
X10.8495Y-6.2124
X10.8523Y-1.311
X10.8523Y-4.6968
X10.8622Y-1.1555
X10.8622Y-4.5413
X10.8801Y-3.0083
X10.8801Y-6.3941
T2
X1.0037Y-3.5573
X1.0037Y-6.9431
X1.0127Y-3.2813
X1.0127Y-6.6671
X1.183Y-1.6004
X1.183Y-4.9862
X1.185Y-1.2972
X1.185Y-4.683
X1.2206Y-3.0879
X1.2206Y-6.4737
X1.2257Y-3.8273
X1.2257Y-7.2131
X1.2263Y-1.246
X1.2263Y-1.3956
X1.2263Y-4.6319
X1.2263Y-4.7815
X1.3776Y-3.0879
X1.3776Y-6.4737
X1.3941Y-1.1846
X1.3941Y-4.5704
X1.5337Y-3.9473
X1.5337Y-7.3331
X1.6717Y-3.6853
X1.6717Y-3.7813
X1.6717Y-7.0711
X1.6717Y-7.1671
X1.6988Y-0.9901
X1.6988Y-4.3759
X1.8366Y-1.0964
X1.8366Y-4.4822
X1.8385Y-1.25
X1.8385Y-4.6358
X1.8779Y-1.276
X1.8779Y-4.6618
X1.9173Y-1.0944
X1.9173Y-4.4803
X1.9297Y-3.8003
X1.9297Y-7.1861
X1.9787Y-3.6753
X1.9787Y-7.0611
X2.1023Y-1.2539
X2.1023Y-4.6397
X2.1191Y-1.6056
X2.1191Y-4.9914
X2.1347Y-3.2793
X2.1347Y-6.6651
X2.1456Y-1.9567
X2.1456Y-5.3425
X2.1537Y-3.5863
X2.1537Y-6.9721
X3.0903Y-3.5573
X3.0903Y-6.9431
X3.0993Y-3.2813
X3.0993Y-6.6671
X3.2696Y-1.6004
X3.2696Y-4.9862
X3.2716Y-1.2972
X3.2716Y-4.683
X3.3072Y-3.0879
X3.3072Y-6.4737
X3.3123Y-3.8273
X3.3123Y-7.2131
X3.313Y-1.246
X3.313Y-1.3956
X3.313Y-4.6319
X3.313Y-4.7815
X3.4642Y-3.0879
X3.4642Y-6.4737
X3.4807Y-1.1846
X3.4807Y-4.5704
X3.6203Y-3.9473
X3.6203Y-7.3331
X3.7583Y-3.6853
X3.7583Y-3.7813
X3.7583Y-7.0711
X3.7583Y-7.1671
X3.7854Y-0.9901
X3.7854Y-4.3759
X3.9232Y-1.0964
X3.9232Y-4.4822
X3.9252Y-1.25
X3.9252Y-4.6358
X3.9645Y-1.276
X3.9645Y-4.6618
X4.0039Y-1.0944
X4.0039Y-4.4803
X4.0163Y-3.8003
X4.0163Y-7.1861
X4.0653Y-3.6753
X4.0653Y-7.0611
X4.1889Y-1.2539
X4.1889Y-4.6397
X4.2057Y-1.6056
X4.2057Y-4.9914
X4.2213Y-3.2793
X4.2213Y-6.6651
X4.2322Y-1.9567
X4.2322Y-5.3425
X4.2403Y-3.5863
X4.2403Y-6.9721
X5.1769Y-3.5573
X5.1769Y-6.9431
X5.1859Y-3.2813
X5.1859Y-6.6671
X5.3563Y-1.6004
X5.3563Y-4.9862
X5.3582Y-1.2972
X5.3582Y-4.683
X5.3938Y-3.0879
X5.3938Y-6.4737
X5.3989Y-3.8273
X5.3989Y-7.2131
X5.3996Y-1.246
X5.3996Y-1.3956
X5.3996Y-4.6319
X5.3996Y-4.7815
X5.5508Y-3.0879
X5.5508Y-6.4737
X5.5673Y-1.1846
X5.5673Y-4.5704
X5.7069Y-3.9473
X5.7069Y-7.3331
X5.8449Y-3.6853
X5.8449Y-3.7813
X5.8449Y-7.0711
X5.8449Y-7.1671
X5.872Y-0.9901
X5.872Y-4.3759
X6.0098Y-1.0964
X6.0098Y-4.4822
X6.0118Y-1.25
X6.0118Y-4.6358
X6.0511Y-1.276
X6.0511Y-4.6618
X6.0905Y-1.0944
X6.0905Y-4.4803
X6.1029Y-3.8003
X6.1029Y-7.1861
X6.1519Y-3.6753
X6.1519Y-7.0611
X6.2756Y-1.2539
X6.2756Y-4.6397
X6.2923Y-1.6056
X6.2923Y-4.9914
X6.3079Y-3.2793
X6.3079Y-6.6651
X6.3189Y-1.9567
X6.3189Y-5.3425
X6.3269Y-3.5863
X6.3269Y-6.9721
X7.2635Y-3.5573
X7.2635Y-6.9431
X7.2725Y-3.2813
X7.2725Y-6.6671
X7.4429Y-1.6004
X7.4429Y-4.9862
X7.4448Y-1.2972
X7.4448Y-4.683
X7.4805Y-3.0879
X7.4805Y-6.4737
X7.4855Y-3.8273
X7.4855Y-7.2131
X7.4862Y-1.246
X7.4862Y-1.3956
X7.4862Y-4.6319
X7.4862Y-4.7815
X7.6375Y-3.0879
X7.6375Y-6.4737
X7.6539Y-1.1846
X7.6539Y-4.5704
X7.7935Y-3.9473
X7.7935Y-7.3331
X7.9315Y-3.6853
X7.9315Y-3.7813
X7.9315Y-7.0711
X7.9315Y-7.1671
X7.9586Y-0.9901
X7.9586Y-4.3759
X8.0964Y-1.0964
X8.0964Y-4.4822
X8.0984Y-1.25
X8.0984Y-4.6358
X8.1378Y-1.276
X8.1378Y-4.6618
X8.1771Y-1.0944
X8.1771Y-4.4803
X8.1895Y-3.8003
X8.1895Y-7.1861
X8.2385Y-3.6753
X8.2385Y-7.0611
X8.3622Y-1.2539
X8.3622Y-4.6397
X8.3789Y-1.6056
X8.3789Y-4.9914
X8.3945Y-3.2793
X8.3945Y-6.6651
X8.4055Y-1.9567
X8.4055Y-5.3425
X8.4135Y-3.5863
X8.4135Y-6.9721
X9.3501Y-3.5573
X9.3501Y-6.9431
X9.3591Y-3.2813
X9.3591Y-6.6671
X9.5295Y-1.6004
X9.5295Y-4.9862
X9.5315Y-1.2972
X9.5315Y-4.683
X9.5671Y-3.0879
X9.5671Y-6.4737
X9.5721Y-3.8273
X9.5721Y-7.2131
X9.5728Y-1.246
X9.5728Y-1.3956
X9.5728Y-4.6319
X9.5728Y-4.7815
X9.7241Y-3.0879
X9.7241Y-6.4737
X9.7405Y-1.1846
X9.7405Y-4.5704
X9.8801Y-3.9473
X9.8801Y-7.3331
X10.0181Y-3.6853
X10.0181Y-3.7813
X10.0181Y-7.0711
X10.0181Y-7.1671
X10.0452Y-0.9901
X10.0452Y-4.3759
X10.183Y-1.0964
X10.183Y-4.4822
X10.185Y-1.25
X10.185Y-4.6358
X10.2244Y-1.276
X10.2244Y-4.6618
X10.2637Y-1.0944
X10.2637Y-4.4803
X10.2761Y-3.8003
X10.2761Y-7.1861
X10.3251Y-3.6753
X10.3251Y-7.0611
X10.4488Y-1.2539
X10.4488Y-4.6397
X10.4655Y-1.6056
X10.4655Y-4.9914
X10.4811Y-3.2793
X10.4811Y-6.6651
X10.4921Y-1.9567
X10.4921Y-5.3425
X10.5001Y-3.5863
X10.5001Y-6.9721
T3
X0.8031Y-0.8819
X0.8031Y-2.2677
X0.8031Y-2.5748
X0.8031Y-3.9606
X0.8031Y-4.2677
X0.8031Y-5.6535
X0.8031Y-5.9606
X0.8031Y-7.3465
X1.5343Y-2.0866
X1.5343Y-3.7795
X1.5343Y-5.4724
X1.5343Y-7.1654
X2.3453Y-0.9571
X2.3453Y-2.65
X2.3453Y-4.3429
X2.3453Y-6.0358
X2.5827Y-0.8819
X2.5827Y-2.5748
X2.5827Y-4.2677
X2.5827Y-5.9606
X2.8898Y-0.8819
X2.8898Y-2.2677
X2.8898Y-2.5748
X2.8898Y-3.9606
X2.8898Y-4.2677
X2.8898Y-5.6535
X2.8898Y-5.9606
X2.8898Y-7.3465
X3.6209Y-2.0866
X3.6209Y-3.7795
X3.6209Y-5.4724
X3.6209Y-7.1654
X4.4319Y-0.9571
X4.4319Y-2.65
X4.4319Y-4.3429
X4.4319Y-6.0358
X4.6693Y-0.8819
X4.6693Y-2.5748
X4.6693Y-4.2677
X4.6693Y-5.9606
X4.9764Y-0.8819
X4.9764Y-2.2677
X4.9764Y-2.5748
X4.9764Y-3.9606
X4.9764Y-4.2677
X4.9764Y-5.6535
X4.9764Y-5.9606
X4.9764Y-7.3465
X5.7075Y-2.0866
X5.7075Y-3.7795
X5.7075Y-5.4724
X5.7075Y-7.1654
X6.5185Y-0.9571
X6.5185Y-2.65
X6.5185Y-4.3429
X6.5185Y-6.0358
X6.7559Y-0.8819
X6.7559Y-2.5748
X6.7559Y-4.2677
X6.7559Y-5.9606
X7.063Y-0.8819
X7.063Y-2.2677
X7.063Y-2.5748
X7.063Y-3.9606
X7.063Y-4.2677
X7.063Y-5.6535
X7.063Y-5.9606
X7.063Y-7.3465
X7.7941Y-2.0866
X7.7941Y-3.7795
X7.7941Y-5.4724
X7.7941Y-7.1654
X8.6051Y-0.9571
X8.6051Y-2.65
X8.6051Y-4.3429
X8.6051Y-6.0358
X8.8425Y-0.8819
X8.8425Y-2.5748
X8.8425Y-4.2677
X8.8425Y-5.9606
X9.1496Y-0.8819
X9.1496Y-2.2677
X9.1496Y-2.5748
X9.1496Y-3.9606
X9.1496Y-4.2677
X9.1496Y-5.6535
X9.1496Y-5.9606
X9.1496Y-7.3465
X9.8807Y-2.0866
X9.8807Y-3.7795
X9.8807Y-5.4724
X9.8807Y-7.1654
X10.6917Y-0.9571
X10.6917Y-2.65
X10.6917Y-4.3429
X10.6917Y-6.0358
X10.9291Y-0.8819
X10.9291Y-2.5748
X10.9291Y-4.2677
X10.9291Y-5.9606
T0
M30
