M48
;DRILL file {KiCad (2015-09-14 BZR 6197)-product} date Wednesday, September 16, 2015 'PMt' 11:24:13 PM
;FORMAT={-:-/ absolute / inch / decimal}
FMAT,2
INCH,TZ
T1C0.035
T2C0.079
%
G90
G05
M72
T1
X1.7914Y-0.8583
X1.7914Y-3.9843
X1.7914Y-4.2441
X1.7914Y-7.3701
X1.9094Y-0.8583
X1.9094Y-3.9843
X1.9094Y-4.2441
X1.9094Y-7.3701
X3.878Y-0.8583
X3.878Y-3.9843
X3.878Y-4.2441
X3.878Y-7.3701
X3.996Y-0.8583
X3.996Y-3.9843
X3.996Y-4.2441
X3.996Y-7.3701
X5.9646Y-0.8583
X5.9646Y-3.9843
X5.9646Y-4.2441
X5.9646Y-7.3701
X6.0826Y-0.8583
X6.0826Y-3.9843
X6.0826Y-4.2441
X6.0826Y-7.3701
X8.0512Y-0.8583
X8.0512Y-3.9843
X8.0512Y-4.2441
X8.0512Y-7.3701
X8.1692Y-0.8583
X8.1692Y-3.9843
X8.1692Y-4.2441
X8.1692Y-7.3701
X10.1379Y-0.8583
X10.1379Y-3.9843
X10.1379Y-4.2441
X10.1379Y-7.3701
X10.2559Y-0.8583
X10.2559Y-3.9843
X10.2559Y-4.2441
X10.2559Y-7.3701
T2
X2.5827Y-2.2677
X2.5827Y-3.9606
X2.5827Y-5.6535
X2.5827Y-7.3465
X4.6693Y-2.2677
X4.6693Y-3.9606
X4.6693Y-5.6535
X4.6693Y-7.3465
X6.7559Y-2.2677
X6.7559Y-3.9606
X6.7559Y-5.6535
X6.7559Y-7.3465
X8.8425Y-2.2677
X8.8425Y-3.9606
X8.8425Y-5.6535
X8.8425Y-7.3465
X10.9291Y-2.2677
X10.9291Y-3.9606
X10.9291Y-5.6535
X10.9291Y-7.3465
T0
M30
